<svg xmlns="http://www.w3.org/2000/svg" width="2071" height="371" viewBox="0 0 2071 371" fill="none"><path d="M176.624 356.139L14.889 195.504C-4.96299 175.787 -4.96299 143.747 14.889 124.03L248.587 356.139C228.589 375.856 196.476 375.856 176.624 356.139Z" fill="#C12128"></path><path d="M204.634 128.47C210.666 134.517 230.666 150.43 248.602 150.43V55.4326C248.602 24.8808 223.84 0.0575186 193.365 0.0575186V40.475L175.904 22.9714C162.571 9.60495 144.952 0.853138 126.222 0.0575186C105.746 -0.738101 86.2228 6.74072 71.9372 21.221C43.6835 49.545 43.6835 95.5318 71.9372 123.856L204.793 257.043C226.38 235.402 226.38 200.235 204.793 178.595L110.984 84.5523C103.842 77.3917 104.318 65.6166 112.254 59.0925C119.238 53.364 129.556 54.637 135.746 61.002" fill="#C12128"></path><path d="M331.287 237.848C331.287 265.781 346.501 276.007 370.942 276.007H393.388V252.313H375.93C363.959 252.313 359.968 248.073 359.968 237.848V161.78H393.388V138.585H359.968V104.417H331.287V138.585H315.076V161.78H331.287V237.848Z" fill="white"></path><path d="M450.519 203.679C450.519 174.499 463.488 165.77 484.438 165.77H491.671V136.34C472.218 136.34 458.5 144.82 450.519 158.537V138.585H422.087V276.007H450.519V203.679Z" fill="white"></path><path d="M644.752 138.585H616.32V215.152C616.32 240.342 602.603 253.311 581.653 253.311C560.953 253.311 547.236 240.342 547.236 215.152V138.585H519.053V219.392C519.053 257.8 543.495 278.002 575.668 278.002C591.879 278.002 607.342 271.268 616.32 259.546V276.007H644.752V138.585Z" fill="white"></path><path d="M787.265 237.598C785.769 187.967 708.204 203.43 708.204 175.746C708.204 166.518 716.185 160.283 731.399 160.283C746.862 160.283 756.09 168.514 757.087 180.485H785.519C784.023 153.051 763.572 136.34 732.396 136.34C699.974 136.34 679.523 154.048 679.523 175.996C679.523 226.375 759.332 210.912 759.332 237.848C759.332 247.325 750.603 254.308 734.142 254.308C718.43 254.308 707.705 245.081 706.708 233.857H677.278C678.525 258.798 701.72 278.251 734.641 278.251C767.064 278.251 787.265 260.793 787.265 237.598Z" fill="white"></path><path d="M824.97 237.848C824.97 265.781 840.184 276.007 864.625 276.007H887.072V252.313H869.613C857.642 252.313 853.652 248.073 853.652 237.848V161.78H887.072V138.585H853.652V104.417H824.97V138.585H808.759V161.78H824.97V237.848Z" fill="white"></path><path d="M973.632 160.283C994.832 160.283 1011.54 173.751 1012.04 194.95H935.972C938.965 173.252 954.428 160.283 973.632 160.283ZM1037.98 235.104H1007.3C1002.06 245.829 992.338 254.308 974.879 254.308C953.929 254.308 937.718 240.591 935.723 217.895H1040.72C1041.47 213.157 1041.72 208.668 1041.72 203.929C1041.72 163.525 1014.04 136.34 974.879 136.34C934.226 136.34 906.293 164.024 906.293 207.171C906.293 250.318 935.474 278.251 974.879 278.251C1008.55 278.251 1030.25 259.047 1037.98 235.104Z" fill="white"></path><path d="M1062.72 206.672C1062.72 249.071 1091.4 278.251 1127.56 278.251C1150.01 278.251 1166.47 267.776 1175.2 255.306V276.007H1203.88V91.4478H1175.2V157.789C1164.72 144.82 1145.77 136.34 1127.81 136.34C1091.4 136.34 1062.72 164.274 1062.72 206.672ZM1175.2 207.171C1175.2 236.85 1155 253.56 1133.55 253.56C1112.35 253.56 1091.9 236.351 1091.9 206.672C1091.9 176.993 1112.35 161.031 1133.55 161.031C1155 161.031 1175.2 177.741 1175.2 207.171Z" fill="white"></path><path d="M1308.46 271.883C1302.2 271.883 1296.56 270.768 1291.54 268.538C1286.56 266.265 1282.62 262.92 1279.7 258.503C1276.83 254.086 1275.39 248.639 1275.39 242.163C1275.39 236.588 1276.42 231.978 1278.48 228.332C1280.54 224.687 1283.35 221.771 1286.91 219.584C1290.47 217.396 1294.48 215.745 1298.94 214.63C1303.44 213.472 1308.09 212.636 1312.9 212.121C1318.69 211.521 1323.38 210.985 1326.98 210.513C1330.59 209.999 1333.2 209.227 1334.83 208.197C1336.51 207.125 1337.34 205.474 1337.34 203.244V202.858C1337.34 198.012 1335.91 194.259 1333.03 191.6C1330.16 188.941 1326.02 187.612 1320.62 187.612C1314.91 187.612 1310.39 188.856 1307.04 191.343C1303.74 193.83 1301.51 196.768 1300.35 200.156L1278.61 197.068C1280.32 191.064 1283.16 186.047 1287.1 182.015C1291.05 177.941 1295.87 174.896 1301.57 172.881C1307.28 170.822 1313.58 169.793 1320.49 169.793C1325.25 169.793 1329.99 170.35 1334.7 171.465C1339.42 172.58 1343.73 174.424 1347.63 176.998C1351.54 179.528 1354.67 182.98 1357.03 187.355C1359.43 191.729 1360.63 197.197 1360.63 203.759V269.889H1338.24V256.316H1337.47C1336.06 259.06 1334.06 261.634 1331.49 264.035C1328.96 266.394 1325.76 268.302 1321.9 269.761C1318.09 271.176 1313.6 271.883 1308.46 271.883ZM1314.5 254.772C1319.18 254.772 1323.23 253.85 1326.66 252.006C1330.09 250.119 1332.73 247.631 1334.58 244.543C1336.46 241.456 1337.41 238.089 1337.41 234.444V222.8C1336.68 223.401 1335.43 223.958 1333.67 224.473C1331.96 224.987 1330.03 225.438 1327.89 225.824C1325.74 226.21 1323.62 226.553 1321.52 226.853C1319.42 227.153 1317.59 227.41 1316.05 227.625C1312.57 228.097 1309.47 228.868 1306.72 229.941C1303.98 231.013 1301.81 232.514 1300.22 234.444C1298.64 236.331 1297.84 238.775 1297.84 241.777C1297.84 246.066 1299.41 249.304 1302.54 251.491C1305.67 253.678 1309.66 254.772 1314.5 254.772ZM1427.15 271.819C1417.28 271.819 1408.81 269.653 1401.74 265.322C1394.7 260.99 1389.28 255.008 1385.46 247.374C1381.69 239.697 1379.8 230.863 1379.8 220.87C1379.8 210.835 1381.73 201.979 1385.59 194.302C1389.45 186.583 1394.9 180.579 1401.93 176.29C1409 171.958 1417.37 169.793 1427.02 169.793C1435.04 169.793 1442.13 171.272 1448.31 174.231C1454.53 177.148 1459.48 181.286 1463.17 186.647C1466.86 191.965 1468.96 198.183 1469.47 205.303H1447.22C1446.32 200.542 1444.17 196.575 1440.78 193.402C1437.44 190.185 1432.96 188.577 1427.34 188.577C1422.58 188.577 1418.4 189.863 1414.79 192.437C1411.19 194.967 1408.38 198.612 1406.37 203.373C1404.39 208.133 1403.41 213.837 1403.41 220.484C1403.41 227.217 1404.39 233.007 1406.37 237.853C1408.34 242.656 1411.11 246.366 1414.67 248.982C1418.27 251.555 1422.49 252.842 1427.34 252.842C1430.77 252.842 1433.84 252.199 1436.54 250.912C1439.28 249.583 1441.58 247.674 1443.42 245.187C1445.26 242.699 1446.53 239.676 1447.22 236.116H1469.47C1468.92 243.107 1466.86 249.304 1463.3 254.707C1459.74 260.068 1454.89 264.271 1448.76 267.316C1442.63 270.318 1435.42 271.819 1427.15 271.819ZM1517.03 271.883C1510.77 271.883 1505.13 270.768 1500.11 268.538C1495.14 266.265 1491.19 262.92 1488.27 258.503C1485.4 254.086 1483.96 248.639 1483.96 242.163C1483.96 236.588 1484.99 231.978 1487.05 228.332C1489.11 224.687 1491.92 221.771 1495.48 219.584C1499.04 217.396 1503.05 215.745 1507.51 214.63C1512.01 213.472 1516.67 212.636 1521.47 212.121C1527.26 211.521 1531.95 210.985 1535.56 210.513C1539.16 209.999 1541.77 209.227 1543.4 208.197C1545.08 207.125 1545.91 205.474 1545.91 203.244V202.858C1545.91 198.012 1544.48 194.259 1541.6 191.6C1538.73 188.941 1534.59 187.612 1529.19 187.612C1523.48 187.612 1518.96 188.856 1515.61 191.343C1512.31 193.83 1510.08 196.768 1508.92 200.156L1487.18 197.068C1488.9 191.064 1491.73 186.047 1495.67 182.015C1499.62 177.941 1504.44 174.896 1510.15 172.881C1515.85 170.822 1522.15 169.793 1529.06 169.793C1533.82 169.793 1538.56 170.35 1543.28 171.465C1547.99 172.58 1552.3 174.424 1556.21 176.998C1560.11 179.528 1563.24 182.98 1565.6 187.355C1568 191.729 1569.2 197.197 1569.2 203.759V269.889H1546.81V256.316H1546.04C1544.63 259.06 1542.63 261.634 1540.06 264.035C1537.53 266.394 1534.33 268.302 1530.47 269.761C1526.66 271.176 1522.18 271.883 1517.03 271.883ZM1523.08 254.772C1527.75 254.772 1531.8 253.85 1535.23 252.006C1538.67 250.119 1541.3 247.631 1543.15 244.543C1545.03 241.456 1545.98 238.089 1545.98 234.444V222.8C1545.25 223.401 1544.01 223.958 1542.25 224.473C1540.53 224.987 1538.6 225.438 1536.46 225.824C1534.31 226.21 1532.19 226.553 1530.09 226.853C1527.99 227.153 1526.16 227.41 1524.62 227.625C1521.15 228.097 1518.04 228.868 1515.29 229.941C1512.55 231.013 1510.38 232.514 1508.8 234.444C1507.21 236.331 1506.42 238.775 1506.42 241.777C1506.42 246.066 1507.98 249.304 1511.11 251.491C1514.24 253.678 1518.23 254.772 1523.08 254.772ZM1629.28 271.626C1621.52 271.626 1614.57 269.632 1608.44 265.643C1602.31 261.655 1597.46 255.865 1593.9 248.275C1590.34 240.684 1588.56 231.463 1588.56 220.613C1588.56 209.634 1590.37 200.371 1593.97 192.823C1597.61 185.232 1602.52 179.506 1608.7 175.647C1614.87 171.744 1621.76 169.793 1629.35 169.793C1635.14 169.793 1639.9 170.779 1643.63 172.752C1647.36 174.682 1650.32 177.019 1652.51 179.764C1654.69 182.466 1656.39 185.017 1657.59 187.419H1658.55V138.143H1681.91V269.889H1659V254.321H1657.59C1656.39 256.723 1654.65 259.275 1652.38 261.977C1650.11 264.636 1647.1 266.909 1643.37 268.796C1639.64 270.683 1634.95 271.626 1629.28 271.626ZM1635.78 252.52C1640.71 252.52 1644.92 251.191 1648.39 248.532C1651.86 245.83 1654.5 242.077 1656.3 237.274C1658.1 232.471 1659 226.874 1659 220.484C1659 214.094 1658.1 208.54 1656.3 203.823C1654.54 199.105 1651.93 195.439 1648.45 192.823C1645.02 190.207 1640.8 188.899 1635.78 188.899C1630.59 188.899 1626.26 190.249 1622.79 192.951C1619.31 195.653 1616.7 199.384 1614.94 204.145C1613.18 208.905 1612.3 214.352 1612.3 220.484C1612.3 226.66 1613.18 232.171 1614.94 237.017C1616.74 241.82 1619.38 245.616 1622.85 248.403C1626.37 251.148 1630.68 252.52 1635.78 252.52ZM1750.46 271.819C1740.56 271.819 1732 269.761 1724.8 265.643C1717.64 261.483 1712.12 255.608 1708.26 248.017C1704.4 240.383 1702.47 231.399 1702.47 221.063C1702.47 210.899 1704.4 201.979 1708.26 194.302C1712.17 186.583 1717.61 180.579 1724.6 176.29C1731.59 171.958 1739.81 169.793 1749.24 169.793C1755.33 169.793 1761.08 170.779 1766.48 172.752C1771.93 174.682 1776.73 177.684 1780.89 181.758C1785.1 185.832 1788.4 191.021 1790.8 197.326C1793.2 203.587 1794.4 211.049 1794.4 219.712V226.853H1713.41V211.156H1772.08C1772.04 206.696 1771.07 202.729 1769.18 199.256C1767.3 195.739 1764.66 192.973 1761.27 190.957C1757.93 188.941 1754.02 187.934 1749.56 187.934C1744.8 187.934 1740.62 189.092 1737.02 191.407C1733.42 193.68 1730.61 196.682 1728.59 200.413C1726.62 204.102 1725.61 208.154 1725.57 212.572V226.274C1725.57 232.021 1726.62 236.953 1728.72 241.07C1730.82 245.144 1733.76 248.275 1737.53 250.462C1741.31 252.606 1745.73 253.678 1750.79 253.678C1754.17 253.678 1757.24 253.206 1759.99 252.263C1762.73 251.277 1765.11 249.84 1767.13 247.953C1769.14 246.066 1770.66 243.729 1771.69 240.941L1793.44 243.385C1792.06 249.132 1789.45 254.15 1785.59 258.439C1781.77 262.684 1776.88 265.987 1770.92 268.345C1764.96 270.661 1758.14 271.819 1750.46 271.819ZM1814.1 269.889V171.079H1836.36V187.869H1837.52C1839.58 182.208 1842.99 177.791 1847.75 174.617C1852.51 171.401 1858.19 169.793 1864.79 169.793C1871.48 169.793 1877.12 171.422 1881.71 174.682C1886.34 177.898 1889.6 182.294 1891.49 187.869H1892.52C1894.71 182.38 1898.4 178.005 1903.58 174.746C1908.82 171.444 1915.01 169.793 1922.18 169.793C1931.27 169.793 1938.69 172.666 1944.43 178.413C1950.18 184.16 1953.05 192.544 1953.05 203.566V269.889H1929.7V207.168C1929.7 201.035 1928.07 196.554 1924.81 193.723C1921.55 190.85 1917.57 189.413 1912.85 189.413C1907.23 189.413 1902.83 191.172 1899.66 194.688C1896.53 198.162 1894.96 202.686 1894.96 208.262V269.889H1872.13V206.203C1872.13 201.1 1870.58 197.025 1867.5 193.981C1864.45 190.936 1860.46 189.413 1855.53 189.413C1852.19 189.413 1849.14 190.271 1846.4 191.986C1843.65 193.659 1841.46 196.039 1839.83 199.127C1838.2 202.172 1837.39 205.731 1837.39 209.806V269.889H1814.1ZM1987.61 306.943C1984.44 306.943 1981.5 306.686 1978.8 306.171C1976.14 305.699 1974.02 305.142 1972.43 304.498L1977.84 286.357C1981.22 287.344 1984.25 287.816 1986.91 287.773C1989.57 287.73 1991.9 286.894 1993.92 285.264C1995.98 283.677 1997.71 281.018 1999.13 277.287L2001.12 271.948L1965.29 171.079H1989.99L2012.77 245.701H2013.8L2036.63 171.079H2061.4L2021.84 281.854C2019.99 287.087 2017.55 291.568 2014.5 295.299C2011.46 299.073 2007.73 301.947 2003.31 303.919C1998.94 305.935 1993.7 306.943 1987.61 306.943Z" fill="white"></path></svg>